<svg width="39" height="24" viewBox="0 0 39 24" fill="none" xmlns="http://www.w3.org/2000/svg">
<g id="mastercard_inc_logo.svg">
<path d="M24.8883 2.56825H14.6144V21.4262H24.8883V2.56825Z" fill="#FF5F00"/>
<path d="M15.2667 11.9972C15.2667 8.33225 16.9301 4.83387 19.7351 2.56825C14.647 -1.52985 7.27585 -0.630267 3.26412 4.60065C-0.747607 9.79824 0.133017 17.3281 5.25368 21.4262C9.52634 24.8579 15.495 24.8579 19.7677 21.4262C16.9301 19.1606 15.2667 15.6622 15.2667 11.9972Z" fill="#EB001B"/>
<path d="M38.75 11.9972C38.75 18.6275 33.4989 23.9917 27.0083 23.9917C24.3665 23.9917 21.8225 23.0921 19.7677 21.4262C24.8557 17.3281 25.7363 9.79824 21.7246 4.56733C21.1375 3.83433 20.4852 3.13466 19.7677 2.56825C24.8557 -1.52985 32.2595 -0.630267 36.2386 4.60065C37.8694 6.69967 38.75 9.29847 38.75 11.9972Z" fill="#F79E1B"/>
<path d="M37.6411 19.4271V19.0273H37.8041V18.9607H37.4128V19.0273H37.5758V19.4271H37.6411ZM38.3912 19.4271V18.9607H38.2608L38.1303 19.2938L37.9998 18.9607H37.8694V19.4271H37.9672V19.0606L38.0977 19.3605H38.1955L38.326 19.0606V19.4271H38.3912Z" fill="#F79E1B"/>
</g>
</svg>
