<svg width="34" height="36" viewBox="0 0 34 36" fill="none" xmlns="http://www.w3.org/2000/svg">
<g clip-path="url(#clip0_7733_429)">
<path d="M33.0665 25.1626V30.5737C33.0665 33.5739 30.6583 35.982 27.6553 35.982H25.8809C26.8548 35.982 27.6553 35.1779 27.6553 34.1651V30.5737C27.6553 27.5708 30.0635 25.1626 33.0665 25.1626Z" fill="#181818"/>
<path d="M24.064 8.08906H32.8544C32.8544 11.0892 30.4038 13.5002 27.4461 13.5002H20.4727C19.4563 13.5002 18.6558 14.3008 18.6558 15.3171V5.42556C18.6558 2.42616 21.1071 0.0180054 24.064 0.0180054V8.08906Z" fill="#181818"/>
<path d="M24.064 15.3171V35.9821C21.0639 35.9821 18.6558 33.5739 18.6558 30.5738V20.7247C18.6558 17.7246 21.0639 15.3164 24.064 15.3164V15.3171Z" fill="#181818"/>
<path d="M14.3854 20.6829V30.5745C14.3854 33.5746 11.9772 35.9827 9.01954 35.9827V17.0915C9.01954 16.1176 8.21538 15.3171 7.20264 15.3171H9.01954C11.9765 15.3171 14.3854 17.7252 14.3854 20.6829Z" fill="#181818"/>
<path d="M14.3854 5.42556V10.7943C11.4284 10.7943 9.01954 8.38612 9.01954 5.42556V1.83491C9.01954 0.821442 8.21538 0.0180054 7.20264 0.0180054H9.01954C11.9765 0.0180054 14.3854 2.42616 14.3854 5.42628V5.42556Z" fill="#181818"/>
<path d="M7.2027 15.3171H5.42824C2.42524 15.3171 0.0170898 12.909 0.0170898 9.90596V5.42556C0.0170898 2.42616 2.42524 0.0180054 5.42824 0.0180054V13.5009C5.42824 14.5137 6.2288 15.3178 7.2027 15.3178V15.3171Z" fill="#181818"/>
<path d="M7.2027 35.982H5.42824C2.42524 35.982 0.0170898 33.5739 0.0170898 30.5745V25.2057C3.02009 25.2057 5.42824 27.6139 5.42824 30.5745V34.1658C5.42824 35.1786 6.2288 35.9827 7.2027 35.9827V35.982Z" fill="#181818"/>
</g>
<defs>
<clipPath id="clip0_7733_429">
<rect width="33.084" height="36" fill="white"/>
</clipPath>
</defs>
</svg>
