<svg width="52" height="18" viewBox="0 0 52 18" fill="none" xmlns="http://www.w3.org/2000/svg">
<path id="visa_inc_logo.svg" d="M33.8803 0.5C30.1929 0.5 26.8822 2.44 26.8822 6C26.8822 10.1 32.7305 10.38 32.7305 12.42C32.7305 13.28 31.7392 14.06 30.074 14.06C27.695 14.06 25.9108 12.98 25.9108 12.98L25.1575 16.58C25.1575 16.58 27.1994 17.5 29.9352 17.5C33.9794 17.5 37.1514 15.48 37.1514 11.84C37.1514 7.52 31.2833 7.24 31.2833 5.34C31.2833 4.66 32.0961 3.92 33.7613 3.92C35.6447 3.92 37.191 4.7 37.191 4.7L37.9443 1.22C37.9245 1.22 36.2394 0.5 33.8803 0.5ZM0.0991232 0.76L0 1.28C0 1.28 1.54632 1.56 2.95387 2.14C4.75791 2.8 4.87686 3.18 5.19405 4.36L8.50477 17.22H12.9455L19.7453 0.76H15.3244L10.9432 11.96L9.15898 2.46C9.00038 1.38 8.16775 0.76 7.13687 0.76H0.0991232ZM21.5295 0.76L18.0602 17.22H22.2829L25.7324 0.76H21.5295ZM45.0416 0.76C44.0305 0.76 43.4952 1.3 43.0987 2.26L36.9135 17.22H41.3344L42.1868 14.72H47.5791L48.0946 17.22H52L48.61 0.76H45.0416ZM45.6165 5.22L46.9249 11.4H43.4159L45.6165 5.22Z" fill="#1434CB"/>
</svg>
